<?xml version="1.0" encoding="UTF-8"?>
<svg width="48px" height="48px" viewBox="0 0 48 48" version="1.1" xmlns="http://www.w3.org/2000/svg" xmlns:xlink="http://www.w3.org/1999/xlink">
    <title>icon-arrow-right</title>
    <defs>
        <path d="M29.852838,43.1382155 L46.9958482,25.9952053 C48.3347173,24.6563362 48.3347173,22.4860311 46.9958482,21.147162 L29.852838,4.00415182 C28.5139689,2.66528273 26.3436638,2.66528273 25.0047947,4.00415182 C23.6659256,5.34302092 23.6659256,7.51332601 25.0047947,8.85219511 L36.2951812,20.1425816 L3.42860204,20.1425816 C1.53258511,20.1425816 0,21.6751667 0,23.5711837 C0,25.4654863 1.53258511,26.9997857 3.42860204,26.9997857 L36.2951812,26.9997857 L25.0047947,38.2901722 C24.334503,38.9587496 24.0002143,39.8364718 24.0002143,40.7141939 C24.0002143,41.591916 24.334503,42.4696381 25.0047947,43.1382155 C26.3436638,44.4770846 28.5139689,44.4770846 29.852838,43.1382155" id="path-1"></path>
    </defs>
    <g id="icon-arrow-right" stroke="none" stroke-width="1" fill="none" fill-rule="evenodd">
        <mask id="mask-2" fill="white">
            <use xlink:href="#path-1"></use>
        </mask>
        <use id="Fill-1" fill="#525D71" xlink:href="#path-1"></use>
    </g>
</svg>