<?xml version="1.0" encoding="UTF-8"?>
<svg width="48px" height="48px" viewBox="0 0 48 48" version="1.1" xmlns="http://www.w3.org/2000/svg" xmlns:xlink="http://www.w3.org/1999/xlink">
    <title>icon-grin-tongue-wink</title>
    <g id="icon-grin-tongue-wink" stroke="none" stroke-width="1" fill="none" fill-rule="evenodd">
        <path d="M33,17.25 C31.753125,17.25 30.75,18.253125 30.75,19.5 C30.75,20.746875 31.753125,21.75 33,21.75 C34.246875,21.75 35.25,20.746875 35.25,19.5 C35.25,18.253125 34.246875,17.25 33,17.25 Z M24,0.749999952 C11.15625,0.749999952 0.749999952,11.15625 0.749999952,24 C0.749999952,33.965625 7.03124996,42.440625 15.84375,45.75 C15.31875,44.60625 15,43.340625 15,42 L15,37.734375 C12.684375,36.215625 10.921875,34.1625 10.51875,31.753125 C10.33125,30.646875 11.390625,29.7375 12.459375,30.075 C15.290625,30.984375 19.5,31.5 24,31.5 C28.5,31.5 32.709375,30.984375 35.540625,30.075 C36.61875,29.728125 37.659375,30.646875 37.48125,31.753125 C37.078125,34.1625 35.315625,36.215625 33,37.734375 L33,42 C33,43.340625 32.68125,44.60625 32.15625,45.75 C40.96875,42.440625 47.25,33.965625 47.25,24 C47.25,11.15625 36.84375,0.749999952 24,0.749999952 Z M18.75,21.84375 L17.859375,21.046875 C16.471875,19.809375 13.528125,19.809375 12.140625,21.046875 L11.25,21.84375 C10.453125,22.5375 9.22499997,21.871875 9.39374997,20.83125 C9.76874997,18.46875 12.6,16.884375 15.009375,16.884375 C17.41875,16.884375 20.25,18.46875 20.625,20.83125 C20.775,21.871875 19.5375,22.5375 18.75,21.84375 Z M33,25.5 C29.690625,25.5 27,22.809375 27,19.5 C27,16.190625 29.690625,13.5 33,13.5 C36.309375,13.5 39,16.190625 39,19.5 C39,22.809375 36.309375,25.5 33,25.5 Z M28.228125,35.11875 C26.878125,34.509375 25.3125,35.325 24.984375,36.76875 L24.815625,37.5 C24.61875,38.3625 23.390625,38.3625 23.19375,37.5 L23.025,36.76875 C22.696875,35.325 21.13125,34.509375 19.78125,35.11875 C19.696875,35.15625 19.809375,35.1 18.009375,36 L18.009375,41.90625 C18.009375,45.20625 20.634375,47.953125 23.925,47.990625 C27.271875,48.0375001 30.009375,45.328125 30.009375,41.990625 L30.009375,35.990625 C28.18125,35.090625 28.303125,35.15625 28.228125,35.11875 L28.228125,35.11875 Z" id="grin-tongue-wink" fill="#525D71" fill-rule="nonzero"></path>
    </g>
</svg>