<?xml version="1.0" encoding="UTF-8"?>
<svg width="48px" height="48px" viewBox="0 0 48 48" version="1.1" xmlns="http://www.w3.org/2000/svg" xmlns:xlink="http://www.w3.org/1999/xlink">
    <title>icon-smiley</title>
    <g id="icon-smiley" stroke="none" stroke-width="1" fill="none" fill-rule="evenodd">
        <path d="M24,0 C10.7419355,0 0,10.7419355 0,24 C0,37.2580645 10.7419355,48 24,48 C37.2580645,48 48,37.2580645 48,24 C48,10.7419355 37.2580645,0 24,0 Z M10.8387097,20.8451613 C11.1580645,16.7709677 13.9548387,13.9354839 16.2580645,13.9354839 C18.5612903,13.9354839 21.3580645,16.7709677 21.6774194,20.8451613 C21.7451613,21.6774194 20.6322581,21.9967742 20.2354839,21.2806452 L19.316129,19.6354839 C18.5709677,18.3096774 17.4580645,17.5451613 16.2677419,17.5451613 C15.0774194,17.5451613 13.9645161,18.3096774 13.2193548,19.6354839 L12.3,21.2806452 C11.883871,21.9967742 10.7709677,21.6677419 10.8387097,20.8451613 Z M35.1096774,32.7290323 C32.3516129,36.0387097 28.3064516,37.9354839 24,37.9354839 C19.6935484,37.9354839 15.6483871,36.0387097 12.8903226,32.7290323 C11.583871,31.1516129 13.9548387,29.1774194 15.2709677,30.7451613 C17.4387097,33.3483871 20.6129032,34.8290323 24,34.8290323 C27.3870968,34.8290323 30.5612903,33.3387097 32.7290323,30.7451613 C34.0451613,29.1774194 36.416129,31.1612903 35.1096774,32.7290323 Z M35.7096774,21.2806452 L34.7903226,19.6354839 C34.0451613,18.3096774 32.9322581,17.5451613 31.7419355,17.5451613 C30.5516129,17.5451613 29.4387097,18.3096774 28.6935484,19.6354839 L27.7741935,21.2806452 C27.3774194,21.9870968 26.2645161,21.6677419 26.3322581,20.8451613 C26.6516129,16.7709677 29.4483871,13.9354839 31.7516129,13.9354839 C34.0548387,13.9354839 36.8516129,16.7709677 37.1709677,20.8451613 C37.2290323,21.6774194 36.1064516,21.9967742 35.7096774,21.2806452 Z" id="Shape" fill="#525D71" fill-rule="nonzero"></path>
    </g>
</svg>