<?xml version="1.0" encoding="UTF-8"?>
<svg width="48px" height="48px" viewBox="0 0 48 48" version="1.1" xmlns="http://www.w3.org/2000/svg" xmlns:xlink="http://www.w3.org/1999/xlink">
    <title>icon-list</title>
    <g id="icon-list" stroke="none" stroke-width="1" fill="none" fill-rule="evenodd">
        <path d="M7.49999995,34.5 L1.49999995,34.5 C0.671572827,34.5 -5.00000006e-08,35.1715729 -5.00000006e-08,36 L-5.00000006e-08,42 C-5.00000006e-08,42.8284272 0.671572827,43.5 1.49999995,43.5 L7.49999995,43.5 C8.32842709,43.5 8.99999995,42.8284272 8.99999995,42 L8.99999995,36 C8.99999995,35.1715729 8.32842709,34.5 7.49999995,34.5 Z M7.49999995,4.49999996 L1.49999995,4.49999996 C0.671572827,4.49999996 -5.00000006e-08,5.17157284 -5.00000006e-08,5.99999996 L-5.00000006e-08,12 C-5.00000006e-08,12.8284271 0.671572827,13.5 1.49999995,13.5 L7.49999995,13.5 C8.32842709,13.5 8.99999995,12.8284271 8.99999995,12 L8.99999995,5.99999996 C8.99999995,5.17157284 8.32842709,4.49999996 7.49999995,4.49999996 Z M7.49999995,19.5 L1.49999995,19.5 C0.671572827,19.5 -5.00000006e-08,20.1715729 -5.00000006e-08,21 L-5.00000006e-08,27 C-5.00000006e-08,27.8284271 0.671572827,28.5 1.49999995,28.5 L7.49999995,28.5 C8.32842709,28.5 8.99999995,27.8284271 8.99999995,27 L8.99999995,21 C8.99999995,20.1715729 8.32842709,19.5 7.49999995,19.5 Z M46.5,36 L16.5,36 C15.6715729,36 15,36.6715729 15,37.5 L15,40.5 C15,41.3284272 15.6715729,42 16.5,42 L46.5,42 C47.3284272,42 48,41.3284272 48,40.5 L48,37.5 C48,36.6715729 47.3284272,36 46.5,36 Z M46.5,5.99999996 L16.5,5.99999996 C15.6715729,5.99999996 15,6.67157284 15,7.49999996 L15,10.5 C15,11.3284271 15.6715729,12 16.5,12 L46.5,12 C47.3284272,12 48,11.3284271 48,10.5 L48,7.49999996 C48,6.67157284 47.3284272,5.99999996 46.5,5.99999996 Z M46.5,21 L16.5,21 C15.6715729,21 15,21.6715729 15,22.5 L15,25.5 C15,26.3284271 15.6715729,27 16.5,27 L46.5,27 C47.3284272,27 48,26.3284271 48,25.5 L48,22.5 C48,21.6715729 47.3284272,21 46.5,21 Z" id="list" fill="#525D71" fill-rule="nonzero"></path>
    </g>
</svg>