<svg width="180px" id="Layer_1" data-name="Layer 1" xmlns="http://www.w3.org/2000/svg" viewBox="0 0 180 66.18"><path d="M68.19,30.5a8,8,0,0,0,3.54.83,9,9,0,0,0,3.57-.6,6,6,0,0,0,2.57-1.84A5.08,5.08,0,0,0,78.93,26q.24-3.39-3.54-5.26l-1-.45-1.69-.64c-1.41-.55-2-1.29-1.87-2.22A2.39,2.39,0,0,1,72,15.79a3.89,3.89,0,0,1,2.23-.58,2.54,2.54,0,0,1,1.93.73,2.71,2.71,0,0,1,.56,2h3.74a5.36,5.36,0,0,0-1.64-4.18,6.3,6.3,0,0,0-4.37-1.61,9.23,9.23,0,0,0-3.66.66,6.19,6.19,0,0,0-2.63,1.89,4.92,4.92,0,0,0-1,2.77c-.14,2.25,1.22,4,4.1,5.3l2.47,1c1.18.54,1.68,1.32,1.5,2.33a2.34,2.34,0,0,1-1.05,1.61,3.94,3.94,0,0,1-2.26.6q-3.16,0-3-3.09H65.12a5.92,5.92,0,0,0,.71,3.08A5.56,5.56,0,0,0,68.19,30.5Z" fill="#2777d3"/><polygon points="87.05 31.07 91.94 18.62 92.93 31.07 96.71 31.07 103.65 12.39 99.82 12.39 95.31 25.64 94.43 12.39 91.23 12.39 86.21 25.57 85.83 12.39 82.16 12.39 83.27 31.07 87.05 31.07" fill="#2777d3"/><path d="M103.34,31.07l1.92-3.85h6.52l.59,3.85h3.84l-3.56-18.68h-3.47l-10,18.68Zm6.92-13.92,1,7H106.8Z" fill="#2777d3"/><polygon points="129.84 27.97 121.91 27.97 124.61 12.39 120.85 12.39 117.61 31.07 129.3 31.07 129.84 27.97" fill="#2777d3"/><path d="M143.69,28.58A10.6,10.6,0,0,0,146.92,22l.09-.68A11,11,0,0,0,147,19a8.14,8.14,0,0,0-1.13-3.44,6.54,6.54,0,0,0-2.45-2.34,7.27,7.27,0,0,0-3.39-.85h-5.36l-3.25,18.68h5.78A9.08,9.08,0,0,0,143.69,28.58ZM137.93,15.5l2,0a3.07,3.07,0,0,1,2.53,1.18,5.22,5.22,0,0,1,.81,3.24l0,.41a9.79,9.79,0,0,1-1.8,5.74,5.16,5.16,0,0,1-4.16,1.9l-1.57,0Z" fill="#2777d3"/><path d="M149.56,28a6,6,0,0,0,2.24,2.42,6.55,6.55,0,0,0,3.28.88,7.92,7.92,0,0,0,3.77-.83,8.62,8.62,0,0,0,3-2.62,11.82,11.82,0,0,0,1.91-4.13,15.27,15.27,0,0,0,.49-4.64,9.3,9.3,0,0,0-.92-3.63A5.94,5.94,0,0,0,161.14,13a6.47,6.47,0,0,0-3.3-.89A7.91,7.91,0,0,0,154,13,8.64,8.64,0,0,0,151,15.7a11.9,11.9,0,0,0-1.9,4.19,14.86,14.86,0,0,0-.45,4.49A9.1,9.1,0,0,0,149.56,28Zm2.81-4.61a12.2,12.2,0,0,1,1.56-6,4.06,4.06,0,0,1,3.73-2.08,2.56,2.56,0,0,1,2.24,1.23,6,6,0,0,1,.61,3.46l-.11,1.22-.09.7a9.51,9.51,0,0,1-1.73,4.7,3.86,3.86,0,0,1-3.33,1.57A2.56,2.56,0,0,1,153,26.9,6.17,6.17,0,0,1,152.37,23.41Z" fill="#2777d3"/><polygon points="78.77 38.85 71.8 52.36 69.51 38.85 64.68 38.85 61.44 57.53 65.19 57.53 66.06 52.62 67.26 43.42 69.76 57.53 72.34 57.53 79.5 43.89 77.68 52.21 76.75 57.53 80.53 57.53 83.77 38.85 78.77 38.85" fill="#2777d3"/><polygon points="98.26 41.97 98.81 38.85 86.66 38.85 83.42 57.53 95.59 57.53 96.13 54.44 87.71 54.44 88.58 49.41 95.74 49.41 96.28 46.42 89.1 46.42 89.88 41.97 98.26 41.97" fill="#2777d3"/><polygon points="112.64 38.85 110.47 51.33 105.27 38.85 101.63 38.85 98.39 57.53 102.15 57.53 104.32 45.07 109.51 57.53 113.16 57.53 116.39 38.85 112.64 38.85" fill="#2777d3"/><path d="M130.49,42.06a6.36,6.36,0,0,0-2.44-2.34,7.35,7.35,0,0,0-3.4-.86h-5.36L116,57.53h5.78a9.16,9.16,0,0,0,6.46-2.48,10.67,10.67,0,0,0,3.22-6.59l.09-.68a10.9,10.9,0,0,0,0-2.28A8.09,8.09,0,0,0,130.49,42.06Zm-2.62,4.76a9.73,9.73,0,0,1-1.8,5.73,5.13,5.13,0,0,1-4.16,1.9h-1.57L122.51,42h2a3.11,3.11,0,0,1,2.53,1.18,5.25,5.25,0,0,1,.81,3.25Z" fill="#2777d3"/><path d="M148.33,45.56a8.91,8.91,0,0,0-.92-3.62,5.82,5.82,0,0,0-2.22-2.45,6.55,6.55,0,0,0-3.3-.9,8.1,8.1,0,0,0-3.81.86A8.55,8.55,0,0,0,135,42.16a11.85,11.85,0,0,0-1.9,4.2,14.22,14.22,0,0,0-.45,4.49,8.89,8.89,0,0,0,1,3.63,5.89,5.89,0,0,0,2.25,2.43,6.62,6.62,0,0,0,3.28.88A8,8,0,0,0,142.9,57a8.62,8.62,0,0,0,3-2.61,11.87,11.87,0,0,0,1.91-4.14A14.91,14.91,0,0,0,148.33,45.56Zm-3.77.9-.1,1.22-.09.69a9.47,9.47,0,0,1-1.73,4.7,3.84,3.84,0,0,1-3.34,1.57A2.58,2.58,0,0,1,137,53.37a6.13,6.13,0,0,1-.6-3.5,12.26,12.26,0,0,1,1.56-6,4.05,4.05,0,0,1,3.72-2.08A2.59,2.59,0,0,1,144,43,5.88,5.88,0,0,1,144.56,46.46Z" fill="#2777d3"/><polygon points="164.08 41.25 164.5 38.85 150.89 38.85 150.34 41.97 159.23 41.99 148.05 55.08 147.63 57.53 161.46 57.53 162 54.44 152.92 54.41 164.08 41.25" fill="#2777d3"/><path d="M176.45,38.85H173L163,57.53h4.14l1.93-3.85h6.51l.59,3.85H180ZM170.6,50.56l3.45-7,1,7Z" fill="#2777d3"/><path d="M59.27,9.56a17.76,17.76,0,0,0-6.64-7A19.54,19.54,0,0,0,43,0,23.52,23.52,0,0,0,27,5.51,28.15,28.15,0,0,0,20.15,14a37,37,0,0,0-3.83,11.14,51.34,51.34,0,0,0-.74,6l13.84-6.91a23.32,23.32,0,0,1,4-9.88,10,10,0,0,1,8.73-4.19q6.86.38,7.22,9.67a48.44,48.44,0,0,1-1.23,12.26q-1.45,6.63-4.72,10.11a9.78,9.78,0,0,1-5.88,3.17l-5,10.07c.76.09,1.55.15,2.36.17a23,23,0,0,0,10.31-2,25.31,25.31,0,0,0,8-5.78,30.54,30.54,0,0,0,5.52-8.42,38.5,38.5,0,0,0,2.94-10,42.65,42.65,0,0,0,.5-9.38A25.16,25.16,0,0,0,59.27,9.56Z" fill="#2777d3"/><path d="M41.43,26.3a1.94,1.94,0,0,0-1.87-1.57,1.84,1.84,0,0,0-.85.2L1,43.78a1.77,1.77,0,0,0-.85.88,1.85,1.85,0,0,0-.12,1.23,1.8,1.8,0,0,0,.66,1,1.86,1.86,0,0,0,1.17.4h17v17a1.9,1.9,0,0,0,.4,1.16,1.83,1.83,0,0,0,1.05.66,2.34,2.34,0,0,0,.44.06,1.74,1.74,0,0,0,1.68-1L41.24,27.47A1.84,1.84,0,0,0,41.43,26.3Z" fill="#2777d3"/></svg>